<mxfile host="app.diagrams.net" modified="2021-05-22T07:37:28.289Z" agent="5.0 (Windows NT 10.0; Win64; x64) AppleWebKit/537.36 (KHTML, like Gecko) Chrome/90.0.4430.93 Safari/537.36 OPR/76.0.4017.123 (Edition Yx 05)" etag="qXCIBMJu3neaV1seKSFI" version="14.6.13" type="github">
  <diagram id="yVRvtDNOpkcY-x4k_joX" name="Page-1">
    <mxGraphModel dx="828" dy="1621" grid="1" gridSize="10" guides="1" tooltips="1" connect="1" arrows="1" fold="1" page="1" pageScale="1" pageWidth="827" pageHeight="1169" math="0" shadow="0">
      <root>
        <mxCell id="0" />
        <mxCell id="1" parent="0" />
        <mxCell id="rZZrpLSbzX8zwbnqx2oc-27" style="edgeStyle=orthogonalEdgeStyle;rounded=0;orthogonalLoop=1;jettySize=auto;html=1;entryX=0.433;entryY=0.017;entryDx=0;entryDy=0;entryPerimeter=0;" edge="1" parent="1" source="rZZrpLSbzX8zwbnqx2oc-1" target="rZZrpLSbzX8zwbnqx2oc-24">
          <mxGeometry relative="1" as="geometry" />
        </mxCell>
        <mxCell id="rZZrpLSbzX8zwbnqx2oc-1" value="Главная страница" style="rounded=1;whiteSpace=wrap;html=1;fillColor=#f8cecc;strokeColor=#b85450;" vertex="1" parent="1">
          <mxGeometry x="30" y="30" width="120" height="60" as="geometry" />
        </mxCell>
        <mxCell id="rZZrpLSbzX8zwbnqx2oc-31" style="edgeStyle=orthogonalEdgeStyle;rounded=0;orthogonalLoop=1;jettySize=auto;html=1;entryX=0;entryY=0.5;entryDx=0;entryDy=0;" edge="1" parent="1" source="rZZrpLSbzX8zwbnqx2oc-2" target="rZZrpLSbzX8zwbnqx2oc-30">
          <mxGeometry relative="1" as="geometry" />
        </mxCell>
        <mxCell id="rZZrpLSbzX8zwbnqx2oc-2" value="Список контактов" style="rounded=1;whiteSpace=wrap;html=1;fillColor=#f8cecc;strokeColor=#b85450;" vertex="1" parent="1">
          <mxGeometry x="30" y="110" width="120" height="60" as="geometry" />
        </mxCell>
        <mxCell id="rZZrpLSbzX8zwbnqx2oc-3" value="Корзина" style="rounded=1;whiteSpace=wrap;html=1;fillColor=#f8cecc;strokeColor=#b85450;" vertex="1" parent="1">
          <mxGeometry x="30" y="190" width="120" height="60" as="geometry" />
        </mxCell>
        <mxCell id="rZZrpLSbzX8zwbnqx2oc-25" style="edgeStyle=orthogonalEdgeStyle;rounded=0;orthogonalLoop=1;jettySize=auto;html=1;entryX=0;entryY=0.5;entryDx=0;entryDy=0;" edge="1" parent="1" source="rZZrpLSbzX8zwbnqx2oc-4" target="rZZrpLSbzX8zwbnqx2oc-23">
          <mxGeometry relative="1" as="geometry" />
        </mxCell>
        <mxCell id="rZZrpLSbzX8zwbnqx2oc-4" value="Категории" style="rounded=1;whiteSpace=wrap;html=1;fillColor=#f8cecc;strokeColor=#b85450;" vertex="1" parent="1">
          <mxGeometry x="30" y="270" width="120" height="60" as="geometry" />
        </mxCell>
        <mxCell id="rZZrpLSbzX8zwbnqx2oc-26" style="edgeStyle=orthogonalEdgeStyle;rounded=0;orthogonalLoop=1;jettySize=auto;html=1;" edge="1" parent="1" source="rZZrpLSbzX8zwbnqx2oc-5" target="rZZrpLSbzX8zwbnqx2oc-24">
          <mxGeometry relative="1" as="geometry" />
        </mxCell>
        <mxCell id="rZZrpLSbzX8zwbnqx2oc-5" value="Поиск, также расширенный с различными фильтрами" style="rounded=1;whiteSpace=wrap;html=1;fillColor=#f8cecc;strokeColor=#b85450;" vertex="1" parent="1">
          <mxGeometry x="30" y="350" width="120" height="60" as="geometry" />
        </mxCell>
        <mxCell id="rZZrpLSbzX8zwbnqx2oc-6" value="Просмотр корзины, редактирование, оплата, прикрепить и открепить карту" style="rounded=1;whiteSpace=wrap;html=1;fillColor=#60a917;strokeColor=#2D7600;fontColor=#ffffff;" vertex="1" parent="1">
          <mxGeometry x="210" y="190" width="120" height="60" as="geometry" />
        </mxCell>
        <mxCell id="rZZrpLSbzX8zwbnqx2oc-7" value="" style="endArrow=none;html=1;exitX=1;exitY=0.5;exitDx=0;exitDy=0;entryX=0;entryY=0.5;entryDx=0;entryDy=0;" edge="1" parent="1" source="rZZrpLSbzX8zwbnqx2oc-3" target="rZZrpLSbzX8zwbnqx2oc-6">
          <mxGeometry width="50" height="50" relative="1" as="geometry">
            <mxPoint x="270" y="250" as="sourcePoint" />
            <mxPoint x="320" y="200" as="targetPoint" />
          </mxGeometry>
        </mxCell>
        <mxCell id="rZZrpLSbzX8zwbnqx2oc-8" value="Личный кабинет" style="rounded=1;whiteSpace=wrap;html=1;fillColor=#f8cecc;strokeColor=#b85450;" vertex="1" parent="1">
          <mxGeometry x="30" y="510" width="120" height="60" as="geometry" />
        </mxCell>
        <mxCell id="rZZrpLSbzX8zwbnqx2oc-9" value="Просмотр, информация об обновлениях в подписках редактирование личной информации, редактирование интерфейса и комнаты, редактирование Wish list" style="rounded=1;whiteSpace=wrap;html=1;" vertex="1" parent="1">
          <mxGeometry x="15" y="620" width="155" height="110" as="geometry" />
        </mxCell>
        <mxCell id="rZZrpLSbzX8zwbnqx2oc-10" value="" style="endArrow=none;html=1;entryX=0.5;entryY=0;entryDx=0;entryDy=0;exitX=0.5;exitY=1;exitDx=0;exitDy=0;" edge="1" parent="1" source="rZZrpLSbzX8zwbnqx2oc-8" target="rZZrpLSbzX8zwbnqx2oc-9">
          <mxGeometry width="50" height="50" relative="1" as="geometry">
            <mxPoint x="150" y="570" as="sourcePoint" />
            <mxPoint x="200" y="520" as="targetPoint" />
          </mxGeometry>
        </mxCell>
        <mxCell id="rZZrpLSbzX8zwbnqx2oc-15" style="edgeStyle=orthogonalEdgeStyle;rounded=0;orthogonalLoop=1;jettySize=auto;html=1;entryX=0;entryY=0.5;entryDx=0;entryDy=0;" edge="1" parent="1" source="rZZrpLSbzX8zwbnqx2oc-13" target="rZZrpLSbzX8zwbnqx2oc-14">
          <mxGeometry relative="1" as="geometry" />
        </mxCell>
        <mxCell id="rZZrpLSbzX8zwbnqx2oc-13" value="Избранное" style="rounded=1;whiteSpace=wrap;html=1;fillColor=#f8cecc;strokeColor=#b85450;" vertex="1" parent="1">
          <mxGeometry x="30" y="430" width="120" height="60" as="geometry" />
        </mxCell>
        <mxCell id="rZZrpLSbzX8zwbnqx2oc-14" value="Просмотр, редактирование, добавление в корзину" style="rounded=1;whiteSpace=wrap;html=1;" vertex="1" parent="1">
          <mxGeometry x="190" y="430" width="120" height="60" as="geometry" />
        </mxCell>
        <mxCell id="rZZrpLSbzX8zwbnqx2oc-17" value="" style="rounded=1;whiteSpace=wrap;html=1;fillColor=#fff2cc;strokeColor=#d6b656;" vertex="1" parent="1">
          <mxGeometry x="380" y="460" width="170" height="120" as="geometry" />
        </mxCell>
        <mxCell id="rZZrpLSbzX8zwbnqx2oc-18" value="" style="rounded=1;whiteSpace=wrap;html=1;fillColor=#fff2cc;strokeColor=#d6b656;" vertex="1" parent="1">
          <mxGeometry x="390" y="467.5" width="170" height="125" as="geometry" />
        </mxCell>
        <mxCell id="rZZrpLSbzX8zwbnqx2oc-19" value="&lt;span&gt;Страница товара, просмотр товара, оценивание, просмотр и добавление комментариев примерка, добавление в корзину, подписаться на обновления, в избранное, добавление в Wish list&lt;/span&gt;" style="rounded=1;whiteSpace=wrap;html=1;fillColor=#fff2cc;strokeColor=#d6b656;" vertex="1" parent="1">
          <mxGeometry x="400" y="475" width="166" height="130" as="geometry" />
        </mxCell>
        <mxCell id="rZZrpLSbzX8zwbnqx2oc-20" value="" style="endArrow=none;html=1;entryX=0;entryY=0.5;entryDx=0;entryDy=0;exitX=1;exitY=0.5;exitDx=0;exitDy=0;" edge="1" parent="1" source="rZZrpLSbzX8zwbnqx2oc-14" target="rZZrpLSbzX8zwbnqx2oc-18">
          <mxGeometry width="50" height="50" relative="1" as="geometry">
            <mxPoint x="200" y="470" as="sourcePoint" />
            <mxPoint x="250" y="420" as="targetPoint" />
          </mxGeometry>
        </mxCell>
        <mxCell id="rZZrpLSbzX8zwbnqx2oc-21" value="" style="rounded=1;whiteSpace=wrap;html=1;fillColor=#fff2cc;strokeColor=#d6b656;" vertex="1" parent="1">
          <mxGeometry x="360" y="250" width="120" height="60" as="geometry" />
        </mxCell>
        <mxCell id="rZZrpLSbzX8zwbnqx2oc-22" value="" style="rounded=1;whiteSpace=wrap;html=1;fillColor=#fff2cc;strokeColor=#d6b656;" vertex="1" parent="1">
          <mxGeometry x="370" y="260" width="120" height="60" as="geometry" />
        </mxCell>
        <mxCell id="rZZrpLSbzX8zwbnqx2oc-23" value="" style="rounded=1;whiteSpace=wrap;html=1;fillColor=#fff2cc;strokeColor=#d6b656;" vertex="1" parent="1">
          <mxGeometry x="380" y="270" width="120" height="60" as="geometry" />
        </mxCell>
        <mxCell id="rZZrpLSbzX8zwbnqx2oc-28" style="edgeStyle=orthogonalEdgeStyle;rounded=0;orthogonalLoop=1;jettySize=auto;html=1;" edge="1" parent="1" source="rZZrpLSbzX8zwbnqx2oc-24" target="rZZrpLSbzX8zwbnqx2oc-19">
          <mxGeometry relative="1" as="geometry" />
        </mxCell>
        <mxCell id="rZZrpLSbzX8zwbnqx2oc-24" value="Список товаров, сортировка товаров" style="rounded=1;whiteSpace=wrap;html=1;fillColor=#fff2cc;strokeColor=#d6b656;" vertex="1" parent="1">
          <mxGeometry x="390" y="280" width="120" height="60" as="geometry" />
        </mxCell>
        <mxCell id="rZZrpLSbzX8zwbnqx2oc-30" value="Просмотр, пригласить, добавить аватара в комнату, пригласить на закрытую трансляцию, обновить/добавить автара, попросить разрешение войти в чужую комнату/трансляцию, запустить свою открытую трансляцию" style="rounded=1;whiteSpace=wrap;html=1;" vertex="1" parent="1">
          <mxGeometry x="530" y="75" width="160" height="130" as="geometry" />
        </mxCell>
        <mxCell id="rZZrpLSbzX8zwbnqx2oc-32" value="Голосовой помощник(может все, можно поставить свою фразу для активации" style="rounded=1;whiteSpace=wrap;html=1;fillColor=#f8cecc;strokeColor=#b85450;" vertex="1" parent="1">
          <mxGeometry x="30" y="-80" width="120" height="90" as="geometry" />
        </mxCell>
        <mxCell id="rZZrpLSbzX8zwbnqx2oc-35" value="Вкл/выкл обучающий режим, также еще одна плашка скрыть показать интерфейс" style="rounded=1;whiteSpace=wrap;html=1;fillColor=#f8cecc;strokeColor=#b85450;" vertex="1" parent="1">
          <mxGeometry x="32.5" y="-170" width="120" height="70" as="geometry" />
        </mxCell>
      </root>
    </mxGraphModel>
  </diagram>
</mxfile>
